<mxfile host="Electron" modified="2024-03-06T19:44:13.672Z" agent="Mozilla/5.0 (X11; Linux x86_64) AppleWebKit/537.36 (KHTML, like Gecko) draw.io/23.1.5 Chrome/120.0.6099.109 Electron/28.1.0 Safari/537.36" etag="lh90bdb2d6srwKpUubkz" version="23.1.5" type="device" pages="3">
  <diagram name="Page-1" id="TrC-4PNrgTcOm5PliKTd">
    <mxGraphModel dx="1434" dy="870" grid="1" gridSize="10" guides="1" tooltips="1" connect="1" arrows="1" fold="1" page="1" pageScale="1" pageWidth="850" pageHeight="1100" math="0" shadow="0">
      <root>
        <mxCell id="0" />
        <mxCell id="1" parent="0" />
        <mxCell id="LV7H4nkZxfYgKZpiR5Yz-9" value="StateMachine" style="swimlane;fontStyle=0;childLayout=stackLayout;horizontal=1;startSize=26;fillColor=none;horizontalStack=0;resizeParent=1;resizeParentMax=0;resizeLast=0;collapsible=1;marginBottom=0;whiteSpace=wrap;html=1;" vertex="1" parent="1">
          <mxGeometry x="130" y="150" width="140" height="104" as="geometry" />
        </mxCell>
        <mxCell id="LV7H4nkZxfYgKZpiR5Yz-10" value="name: string" style="text;strokeColor=none;fillColor=none;align=left;verticalAlign=top;spacingLeft=4;spacingRight=4;overflow=hidden;rotatable=0;points=[[0,0.5],[1,0.5]];portConstraint=eastwest;whiteSpace=wrap;html=1;" vertex="1" parent="LV7H4nkZxfYgKZpiR5Yz-9">
          <mxGeometry y="26" width="140" height="26" as="geometry" />
        </mxCell>
        <mxCell id="LV7H4nkZxfYgKZpiR5Yz-11" value="states: State[]" style="text;strokeColor=none;fillColor=none;align=left;verticalAlign=top;spacingLeft=4;spacingRight=4;overflow=hidden;rotatable=0;points=[[0,0.5],[1,0.5]];portConstraint=eastwest;whiteSpace=wrap;html=1;" vertex="1" parent="LV7H4nkZxfYgKZpiR5Yz-9">
          <mxGeometry y="52" width="140" height="26" as="geometry" />
        </mxCell>
        <mxCell id="LV7H4nkZxfYgKZpiR5Yz-12" value="initial_state: State" style="text;strokeColor=none;fillColor=none;align=left;verticalAlign=top;spacingLeft=4;spacingRight=4;overflow=hidden;rotatable=0;points=[[0,0.5],[1,0.5]];portConstraint=eastwest;whiteSpace=wrap;html=1;" vertex="1" parent="LV7H4nkZxfYgKZpiR5Yz-9">
          <mxGeometry y="78" width="140" height="26" as="geometry" />
        </mxCell>
        <mxCell id="LV7H4nkZxfYgKZpiR5Yz-13" value="State" style="swimlane;fontStyle=0;childLayout=stackLayout;horizontal=1;startSize=26;fillColor=none;horizontalStack=0;resizeParent=1;resizeParentMax=0;resizeLast=0;collapsible=1;marginBottom=0;whiteSpace=wrap;html=1;" vertex="1" parent="1">
          <mxGeometry x="130" y="360" width="140" height="182" as="geometry" />
        </mxCell>
        <mxCell id="LV7H4nkZxfYgKZpiR5Yz-14" value="name: string" style="text;strokeColor=none;fillColor=none;align=left;verticalAlign=top;spacingLeft=4;spacingRight=4;overflow=hidden;rotatable=0;points=[[0,0.5],[1,0.5]];portConstraint=eastwest;whiteSpace=wrap;html=1;" vertex="1" parent="LV7H4nkZxfYgKZpiR5Yz-13">
          <mxGeometry y="26" width="140" height="26" as="geometry" />
        </mxCell>
        <mxCell id="LV7H4nkZxfYgKZpiR5Yz-15" value="state_id: int" style="text;strokeColor=none;fillColor=none;align=left;verticalAlign=top;spacingLeft=4;spacingRight=4;overflow=hidden;rotatable=0;points=[[0,0.5],[1,0.5]];portConstraint=eastwest;whiteSpace=wrap;html=1;" vertex="1" parent="LV7H4nkZxfYgKZpiR5Yz-13">
          <mxGeometry y="52" width="140" height="26" as="geometry" />
        </mxCell>
        <mxCell id="LV7H4nkZxfYgKZpiR5Yz-16" value="info_text: string" style="text;strokeColor=none;fillColor=none;align=left;verticalAlign=top;spacingLeft=4;spacingRight=4;overflow=hidden;rotatable=0;points=[[0,0.5],[1,0.5]];portConstraint=eastwest;whiteSpace=wrap;html=1;" vertex="1" parent="LV7H4nkZxfYgKZpiR5Yz-13">
          <mxGeometry y="78" width="140" height="26" as="geometry" />
        </mxCell>
        <mxCell id="LV7H4nkZxfYgKZpiR5Yz-32" value="input_par_interface: {}" style="text;strokeColor=none;fillColor=none;align=left;verticalAlign=top;spacingLeft=4;spacingRight=4;overflow=hidden;rotatable=0;points=[[0,0.5],[1,0.5]];portConstraint=eastwest;whiteSpace=wrap;html=1;" vertex="1" parent="LV7H4nkZxfYgKZpiR5Yz-13">
          <mxGeometry y="104" width="140" height="26" as="geometry" />
        </mxCell>
        <mxCell id="LV7H4nkZxfYgKZpiR5Yz-33" value="input_parameters: {}" style="text;strokeColor=none;fillColor=none;align=left;verticalAlign=top;spacingLeft=4;spacingRight=4;overflow=hidden;rotatable=0;points=[[0,0.5],[1,0.5]];portConstraint=eastwest;whiteSpace=wrap;html=1;" vertex="1" parent="LV7H4nkZxfYgKZpiR5Yz-13">
          <mxGeometry y="130" width="140" height="26" as="geometry" />
        </mxCell>
        <mxCell id="LV7H4nkZxfYgKZpiR5Yz-35" value="outputs: string[]" style="text;strokeColor=none;fillColor=none;align=left;verticalAlign=top;spacingLeft=4;spacingRight=4;overflow=hidden;rotatable=0;points=[[0,0.5],[1,0.5]];portConstraint=eastwest;whiteSpace=wrap;html=1;" vertex="1" parent="LV7H4nkZxfYgKZpiR5Yz-13">
          <mxGeometry y="156" width="140" height="26" as="geometry" />
        </mxCell>
        <mxCell id="LV7H4nkZxfYgKZpiR5Yz-17" value="BehaviorGraph" style="swimlane;fontStyle=0;childLayout=stackLayout;horizontal=1;startSize=26;fillColor=none;horizontalStack=0;resizeParent=1;resizeParentMax=0;resizeLast=0;collapsible=1;marginBottom=0;whiteSpace=wrap;html=1;" vertex="1" parent="1">
          <mxGeometry x="430" y="150" width="140" height="104" as="geometry" />
        </mxCell>
        <mxCell id="LV7H4nkZxfYgKZpiR5Yz-18" value="name: string" style="text;strokeColor=none;fillColor=none;align=left;verticalAlign=top;spacingLeft=4;spacingRight=4;overflow=hidden;rotatable=0;points=[[0,0.5],[1,0.5]];portConstraint=eastwest;whiteSpace=wrap;html=1;" vertex="1" parent="LV7H4nkZxfYgKZpiR5Yz-17">
          <mxGeometry y="26" width="140" height="26" as="geometry" />
        </mxCell>
        <mxCell id="LV7H4nkZxfYgKZpiR5Yz-19" value="nodes: StateNode[]" style="text;strokeColor=none;fillColor=none;align=left;verticalAlign=top;spacingLeft=4;spacingRight=4;overflow=hidden;rotatable=0;points=[[0,0.5],[1,0.5]];portConstraint=eastwest;whiteSpace=wrap;html=1;" vertex="1" parent="LV7H4nkZxfYgKZpiR5Yz-17">
          <mxGeometry y="52" width="140" height="26" as="geometry" />
        </mxCell>
        <mxCell id="LV7H4nkZxfYgKZpiR5Yz-20" value="edges: Edge[]" style="text;strokeColor=none;fillColor=none;align=left;verticalAlign=top;spacingLeft=4;spacingRight=4;overflow=hidden;rotatable=0;points=[[0,0.5],[1,0.5]];portConstraint=eastwest;whiteSpace=wrap;html=1;" vertex="1" parent="LV7H4nkZxfYgKZpiR5Yz-17">
          <mxGeometry y="78" width="140" height="26" as="geometry" />
        </mxCell>
        <mxCell id="LV7H4nkZxfYgKZpiR5Yz-21" value="StateNode" style="swimlane;fontStyle=0;childLayout=stackLayout;horizontal=1;startSize=26;fillColor=none;horizontalStack=0;resizeParent=1;resizeParentMax=0;resizeLast=0;collapsible=1;marginBottom=0;whiteSpace=wrap;html=1;" vertex="1" parent="1">
          <mxGeometry x="430" y="360" width="250" height="208" as="geometry" />
        </mxCell>
        <mxCell id="LV7H4nkZxfYgKZpiR5Yz-24" value="title: string" style="text;strokeColor=none;fillColor=none;align=left;verticalAlign=top;spacingLeft=4;spacingRight=4;overflow=hidden;rotatable=0;points=[[0,0.5],[1,0.5]];portConstraint=eastwest;whiteSpace=wrap;html=1;" vertex="1" parent="LV7H4nkZxfYgKZpiR5Yz-21">
          <mxGeometry y="26" width="250" height="26" as="geometry" />
        </mxCell>
        <mxCell id="LV7H4nkZxfYgKZpiR5Yz-30" value="stateId: int" style="text;strokeColor=none;fillColor=none;align=left;verticalAlign=top;spacingLeft=4;spacingRight=4;overflow=hidden;rotatable=0;points=[[0,0.5],[1,0.5]];portConstraint=eastwest;whiteSpace=wrap;html=1;" vertex="1" parent="LV7H4nkZxfYgKZpiR5Yz-21">
          <mxGeometry y="52" width="250" height="26" as="geometry" />
        </mxCell>
        <mxCell id="LV7H4nkZxfYgKZpiR5Yz-28" value="infoText: string" style="text;strokeColor=none;fillColor=none;align=left;verticalAlign=top;spacingLeft=4;spacingRight=4;overflow=hidden;rotatable=0;points=[[0,0.5],[1,0.5]];portConstraint=eastwest;whiteSpace=wrap;html=1;" vertex="1" parent="LV7H4nkZxfYgKZpiR5Yz-21">
          <mxGeometry y="78" width="250" height="26" as="geometry" />
        </mxCell>
        <mxCell id="LV7H4nkZxfYgKZpiR5Yz-23" value="nodeId: int" style="text;strokeColor=none;fillColor=none;align=left;verticalAlign=top;spacingLeft=4;spacingRight=4;overflow=hidden;rotatable=0;points=[[0,0.5],[1,0.5]];portConstraint=eastwest;whiteSpace=wrap;html=1;" vertex="1" parent="LV7H4nkZxfYgKZpiR5Yz-21">
          <mxGeometry y="104" width="250" height="26" as="geometry" />
        </mxCell>
        <mxCell id="LV7H4nkZxfYgKZpiR5Yz-26" value="x: int" style="text;strokeColor=none;fillColor=none;align=left;verticalAlign=top;spacingLeft=4;spacingRight=4;overflow=hidden;rotatable=0;points=[[0,0.5],[1,0.5]];portConstraint=eastwest;whiteSpace=wrap;html=1;" vertex="1" parent="LV7H4nkZxfYgKZpiR5Yz-21">
          <mxGeometry y="130" width="250" height="26" as="geometry" />
        </mxCell>
        <mxCell id="LV7H4nkZxfYgKZpiR5Yz-27" value="y: int" style="text;strokeColor=none;fillColor=none;align=left;verticalAlign=top;spacingLeft=4;spacingRight=4;overflow=hidden;rotatable=0;points=[[0,0.5],[1,0.5]];portConstraint=eastwest;whiteSpace=wrap;html=1;" vertex="1" parent="LV7H4nkZxfYgKZpiR5Yz-21">
          <mxGeometry y="156" width="250" height="26" as="geometry" />
        </mxCell>
        <mxCell id="LV7H4nkZxfYgKZpiR5Yz-34" value="transitions: {keys: outputs, values: nodeIds}" style="text;strokeColor=none;fillColor=none;align=left;verticalAlign=top;spacingLeft=4;spacingRight=4;overflow=hidden;rotatable=0;points=[[0,0.5],[1,0.5]];portConstraint=eastwest;whiteSpace=wrap;html=1;" vertex="1" parent="LV7H4nkZxfYgKZpiR5Yz-21">
          <mxGeometry y="182" width="250" height="26" as="geometry" />
        </mxCell>
        <mxCell id="LV7H4nkZxfYgKZpiR5Yz-25" style="edgeStyle=orthogonalEdgeStyle;rounded=0;orthogonalLoop=1;jettySize=auto;html=1;endArrow=none;endFill=0;" edge="1" parent="1" source="LV7H4nkZxfYgKZpiR5Yz-24" target="LV7H4nkZxfYgKZpiR5Yz-14">
          <mxGeometry relative="1" as="geometry" />
        </mxCell>
        <mxCell id="LV7H4nkZxfYgKZpiR5Yz-29" style="edgeStyle=orthogonalEdgeStyle;rounded=0;orthogonalLoop=1;jettySize=auto;html=1;endArrow=none;endFill=0;" edge="1" parent="1" source="LV7H4nkZxfYgKZpiR5Yz-28" target="LV7H4nkZxfYgKZpiR5Yz-16">
          <mxGeometry relative="1" as="geometry" />
        </mxCell>
        <mxCell id="LV7H4nkZxfYgKZpiR5Yz-31" style="edgeStyle=orthogonalEdgeStyle;rounded=0;orthogonalLoop=1;jettySize=auto;html=1;endArrow=none;endFill=0;" edge="1" parent="1" source="LV7H4nkZxfYgKZpiR5Yz-15" target="LV7H4nkZxfYgKZpiR5Yz-30">
          <mxGeometry relative="1" as="geometry" />
        </mxCell>
        <mxCell id="LV7H4nkZxfYgKZpiR5Yz-36" style="edgeStyle=orthogonalEdgeStyle;rounded=0;orthogonalLoop=1;jettySize=auto;html=1;endArrow=none;endFill=0;" edge="1" parent="1" source="LV7H4nkZxfYgKZpiR5Yz-34" target="LV7H4nkZxfYgKZpiR5Yz-35">
          <mxGeometry relative="1" as="geometry" />
        </mxCell>
      </root>
    </mxGraphModel>
  </diagram>
  <diagram id="rSXeRDJd0gk2Sk7lF5s4" name="Page-2">
    <mxGraphModel dx="1434" dy="870" grid="1" gridSize="10" guides="1" tooltips="1" connect="1" arrows="1" fold="1" page="1" pageScale="1" pageWidth="850" pageHeight="1100" math="0" shadow="0">
      <root>
        <mxCell id="0" />
        <mxCell id="1" parent="0" />
        <mxCell id="7-__D365zkTAUEWNNwqi-1" value="Classname" style="swimlane;fontStyle=1;align=center;verticalAlign=top;childLayout=stackLayout;horizontal=1;startSize=26;horizontalStack=0;resizeParent=1;resizeParentMax=0;resizeLast=0;collapsible=1;marginBottom=0;whiteSpace=wrap;html=1;" vertex="1" parent="1">
          <mxGeometry x="240" y="160" width="210" height="190" as="geometry" />
        </mxCell>
        <mxCell id="7-__D365zkTAUEWNNwqi-2" value="@Input x: number" style="text;strokeColor=none;fillColor=none;align=left;verticalAlign=top;spacingLeft=4;spacingRight=4;overflow=hidden;rotatable=0;points=[[0,0.5],[1,0.5]];portConstraint=eastwest;whiteSpace=wrap;html=1;" vertex="1" parent="7-__D365zkTAUEWNNwqi-1">
          <mxGeometry y="26" width="210" height="26" as="geometry" />
        </mxCell>
        <mxCell id="7-__D365zkTAUEWNNwqi-5" value="@Input y: number" style="text;strokeColor=none;fillColor=none;align=left;verticalAlign=top;spacingLeft=4;spacingRight=4;overflow=hidden;rotatable=0;points=[[0,0.5],[1,0.5]];portConstraint=eastwest;whiteSpace=wrap;html=1;" vertex="1" parent="7-__D365zkTAUEWNNwqi-1">
          <mxGeometry y="52" width="210" height="26" as="geometry" />
        </mxCell>
        <mxCell id="7-__D365zkTAUEWNNwqi-6" value="@Input title: string" style="text;strokeColor=none;fillColor=none;align=left;verticalAlign=top;spacingLeft=4;spacingRight=4;overflow=hidden;rotatable=0;points=[[0,0.5],[1,0.5]];portConstraint=eastwest;whiteSpace=wrap;html=1;" vertex="1" parent="7-__D365zkTAUEWNNwqi-1">
          <mxGeometry y="78" width="210" height="26" as="geometry" />
        </mxCell>
        <mxCell id="7-__D365zkTAUEWNNwqi-7" value="@Input infoText: string" style="text;strokeColor=none;fillColor=none;align=left;verticalAlign=top;spacingLeft=4;spacingRight=4;overflow=hidden;rotatable=0;points=[[0,0.5],[1,0.5]];portConstraint=eastwest;whiteSpace=wrap;html=1;" vertex="1" parent="7-__D365zkTAUEWNNwqi-1">
          <mxGeometry y="104" width="210" height="26" as="geometry" />
        </mxCell>
        <mxCell id="7-__D365zkTAUEWNNwqi-8" value="@Input outputGates: string[]" style="text;strokeColor=none;fillColor=none;align=left;verticalAlign=top;spacingLeft=4;spacingRight=4;overflow=hidden;rotatable=0;points=[[0,0.5],[1,0.5]];portConstraint=eastwest;whiteSpace=wrap;html=1;" vertex="1" parent="7-__D365zkTAUEWNNwqi-1">
          <mxGeometry y="130" width="210" height="26" as="geometry" />
        </mxCell>
        <mxCell id="7-__D365zkTAUEWNNwqi-3" value="" style="line;strokeWidth=1;fillColor=none;align=left;verticalAlign=middle;spacingTop=-1;spacingLeft=3;spacingRight=3;rotatable=0;labelPosition=right;points=[];portConstraint=eastwest;strokeColor=inherit;" vertex="1" parent="7-__D365zkTAUEWNNwqi-1">
          <mxGeometry y="156" width="210" height="8" as="geometry" />
        </mxCell>
        <mxCell id="7-__D365zkTAUEWNNwqi-4" value="+ method(type): type" style="text;strokeColor=none;fillColor=none;align=left;verticalAlign=top;spacingLeft=4;spacingRight=4;overflow=hidden;rotatable=0;points=[[0,0.5],[1,0.5]];portConstraint=eastwest;whiteSpace=wrap;html=1;" vertex="1" parent="7-__D365zkTAUEWNNwqi-1">
          <mxGeometry y="164" width="210" height="26" as="geometry" />
        </mxCell>
      </root>
    </mxGraphModel>
  </diagram>
  <diagram id="fEo7u1wzuE3imv8gHrJ8" name="Page-3">
    <mxGraphModel dx="2045" dy="1825" grid="1" gridSize="10" guides="1" tooltips="1" connect="1" arrows="1" fold="1" page="1" pageScale="1" pageWidth="850" pageHeight="1100" math="0" shadow="0">
      <root>
        <mxCell id="0" />
        <mxCell id="1" parent="0" />
        <mxCell id="XQqeJRSEG5e-K07BCC-s-21" value="circleDrag.emit(nodeId, outputGate, circlepos)" style="html=1;verticalAlign=bottom;endArrow=block;curved=0;rounded=0;" edge="1" parent="1" source="XQqeJRSEG5e-K07BCC-s-1" target="XQqeJRSEG5e-K07BCC-s-17">
          <mxGeometry width="80" relative="1" as="geometry">
            <mxPoint x="240" y="200" as="sourcePoint" />
            <mxPoint x="320" y="200" as="targetPoint" />
            <Array as="points">
              <mxPoint x="300" y="190" />
            </Array>
          </mxGeometry>
        </mxCell>
        <mxCell id="XQqeJRSEG5e-K07BCC-s-4" value="" style="rounded=0;whiteSpace=wrap;html=1;" vertex="1" parent="1">
          <mxGeometry x="-530" y="30" width="240" height="130" as="geometry" />
        </mxCell>
        <mxCell id="XQqeJRSEG5e-K07BCC-s-10" value="" style="rounded=0;whiteSpace=wrap;html=1;dashed=1;fillColor=none;strokeWidth=2;" vertex="1" parent="1">
          <mxGeometry x="-515" y="135" width="215" height="50" as="geometry" />
        </mxCell>
        <mxCell id="XQqeJRSEG5e-K07BCC-s-1" value=":StateNode" style="shape=umlLifeline;perimeter=lifelinePerimeter;whiteSpace=wrap;html=1;container=1;dropTarget=0;collapsible=0;recursiveResize=0;outlineConnect=0;portConstraint=eastwest;newEdgeStyle={&quot;curved&quot;:0,&quot;rounded&quot;:0};" vertex="1" parent="1">
          <mxGeometry x="120" y="120" width="100" height="300" as="geometry" />
        </mxCell>
        <mxCell id="XQqeJRSEG5e-K07BCC-s-3" value="(mousedown)=onBotCircleDrag(outputGate)" style="html=1;verticalAlign=bottom;startArrow=oval;endArrow=block;startSize=8;curved=0;rounded=0;entryX=0;entryY=0;entryDx=0;entryDy=5;" edge="1" target="XQqeJRSEG5e-K07BCC-s-2" parent="XQqeJRSEG5e-K07BCC-s-1">
          <mxGeometry relative="1" as="geometry">
            <mxPoint x="-200" y="65" as="sourcePoint" />
          </mxGeometry>
        </mxCell>
        <mxCell id="XQqeJRSEG5e-K07BCC-s-2" value="" style="html=1;points=[[0,0,0,0,5],[0,1,0,0,-5],[1,0,0,0,5],[1,1,0,0,-5]];perimeter=orthogonalPerimeter;outlineConnect=0;targetShapes=umlLifeline;portConstraint=eastwest;newEdgeStyle={&quot;curved&quot;:0,&quot;rounded&quot;:0};" vertex="1" parent="XQqeJRSEG5e-K07BCC-s-1">
          <mxGeometry x="45" y="60" width="10" height="80" as="geometry" />
        </mxCell>
        <mxCell id="XQqeJRSEG5e-K07BCC-s-5" value="" style="ellipse;whiteSpace=wrap;html=1;aspect=fixed;" vertex="1" parent="1">
          <mxGeometry x="-500" y="150" width="20" height="20" as="geometry" />
        </mxCell>
        <mxCell id="XQqeJRSEG5e-K07BCC-s-6" value="" style="ellipse;whiteSpace=wrap;html=1;aspect=fixed;" vertex="1" parent="1">
          <mxGeometry x="-430" y="150" width="20" height="20" as="geometry" />
        </mxCell>
        <mxCell id="XQqeJRSEG5e-K07BCC-s-7" value="" style="ellipse;whiteSpace=wrap;html=1;aspect=fixed;" vertex="1" parent="1">
          <mxGeometry x="-360" y="150" width="20" height="20" as="geometry" />
        </mxCell>
        <mxCell id="XQqeJRSEG5e-K07BCC-s-8" value="" style="endArrow=classic;html=1;rounded=0;" edge="1" parent="1" target="XQqeJRSEG5e-K07BCC-s-5">
          <mxGeometry width="50" height="50" relative="1" as="geometry">
            <mxPoint x="-580" y="270" as="sourcePoint" />
            <mxPoint x="-530" y="220" as="targetPoint" />
          </mxGeometry>
        </mxCell>
        <mxCell id="XQqeJRSEG5e-K07BCC-s-9" value="OutputGate/BottomCircle" style="text;html=1;align=center;verticalAlign=middle;resizable=0;points=[];autosize=1;strokeColor=none;fillColor=none;" vertex="1" parent="1">
          <mxGeometry x="-680" y="268" width="160" height="30" as="geometry" />
        </mxCell>
        <mxCell id="XQqeJRSEG5e-K07BCC-s-11" value="" style="endArrow=classic;html=1;rounded=0;entryX=0.93;entryY=1.06;entryDx=0;entryDy=0;entryPerimeter=0;" edge="1" parent="1" target="XQqeJRSEG5e-K07BCC-s-10">
          <mxGeometry width="50" height="50" relative="1" as="geometry">
            <mxPoint x="-210" y="360" as="sourcePoint" />
            <mxPoint x="-160" y="310" as="targetPoint" />
          </mxGeometry>
        </mxCell>
        <mxCell id="XQqeJRSEG5e-K07BCC-s-12" value="BottomCircleArea" style="text;html=1;align=center;verticalAlign=middle;resizable=0;points=[];autosize=1;strokeColor=none;fillColor=none;" vertex="1" parent="1">
          <mxGeometry x="-270" y="358" width="120" height="30" as="geometry" />
        </mxCell>
        <mxCell id="XQqeJRSEG5e-K07BCC-s-13" value="" style="ellipse;whiteSpace=wrap;html=1;aspect=fixed;" vertex="1" parent="1">
          <mxGeometry x="-417.5" y="20" width="20" height="20" as="geometry" />
        </mxCell>
        <mxCell id="XQqeJRSEG5e-K07BCC-s-14" value="" style="endArrow=classic;html=1;rounded=0;" edge="1" parent="1" target="XQqeJRSEG5e-K07BCC-s-13">
          <mxGeometry width="50" height="50" relative="1" as="geometry">
            <mxPoint x="-570" as="sourcePoint" />
            <mxPoint x="-520" y="-50" as="targetPoint" />
          </mxGeometry>
        </mxCell>
        <mxCell id="XQqeJRSEG5e-K07BCC-s-15" value="TopCircle" style="text;html=1;align=center;verticalAlign=middle;resizable=0;points=[];autosize=1;strokeColor=none;fillColor=none;" vertex="1" parent="1">
          <mxGeometry x="-655" y="-22" width="70" height="30" as="geometry" />
        </mxCell>
        <mxCell id="XQqeJRSEG5e-K07BCC-s-16" value=":TreeCanvas" style="shape=umlLifeline;perimeter=lifelinePerimeter;whiteSpace=wrap;html=1;container=1;dropTarget=0;collapsible=0;recursiveResize=0;outlineConnect=0;portConstraint=eastwest;newEdgeStyle={&quot;curved&quot;:0,&quot;rounded&quot;:0};" vertex="1" parent="1">
          <mxGeometry x="400" y="110" width="100" height="300" as="geometry" />
        </mxCell>
        <mxCell id="XQqeJRSEG5e-K07BCC-s-17" value="" style="html=1;points=[[0,0,0,0,5],[0,1,0,0,-5],[1,0,0,0,5],[1,1,0,0,-5]];perimeter=orthogonalPerimeter;outlineConnect=0;targetShapes=umlLifeline;portConstraint=eastwest;newEdgeStyle={&quot;curved&quot;:0,&quot;rounded&quot;:0};" vertex="1" parent="XQqeJRSEG5e-K07BCC-s-16">
          <mxGeometry x="45" y="70" width="10" height="80" as="geometry" />
        </mxCell>
        <mxCell id="XQqeJRSEG5e-K07BCC-s-18" value="" style="html=1;points=[[0,0,0,0,5],[0,1,0,0,-5],[1,0,0,0,5],[1,1,0,0,-5]];perimeter=orthogonalPerimeter;outlineConnect=0;targetShapes=umlLifeline;portConstraint=eastwest;newEdgeStyle={&quot;curved&quot;:0,&quot;rounded&quot;:0};" vertex="1" parent="1">
          <mxGeometry x="360" y="480" width="10" height="80" as="geometry" />
        </mxCell>
        <mxCell id="XQqeJRSEG5e-K07BCC-s-19" value="dispatch" style="html=1;verticalAlign=bottom;endArrow=block;curved=0;rounded=0;entryX=0;entryY=0;entryDx=0;entryDy=5;" edge="1" target="XQqeJRSEG5e-K07BCC-s-18" parent="1">
          <mxGeometry relative="1" as="geometry">
            <mxPoint x="290" y="485" as="sourcePoint" />
          </mxGeometry>
        </mxCell>
        <mxCell id="XQqeJRSEG5e-K07BCC-s-20" value="return" style="html=1;verticalAlign=bottom;endArrow=open;dashed=1;endSize=8;curved=0;rounded=0;exitX=0;exitY=1;exitDx=0;exitDy=-5;" edge="1" source="XQqeJRSEG5e-K07BCC-s-18" parent="1">
          <mxGeometry relative="1" as="geometry">
            <mxPoint x="290" y="555" as="targetPoint" />
          </mxGeometry>
        </mxCell>
      </root>
    </mxGraphModel>
  </diagram>
</mxfile>
